<svg width="1920" height="1080" viewBox="0 0 1920 1080" fill="none" xmlns="http://www.w3.org/2000/svg">
<rect width="1920" height="1080" fill="#2D8C50"/>
<path fill-rule="evenodd" clip-rule="evenodd" d="M597.716 492.928C600.105 490.677 598.647 486.167 595.366 486.245C573.933 486.758 526.954 488.879 505.086 497.655C473.775 510.221 456.035 537.445 454 565.443C454.577 577.593 458.483 587.623 464.378 595.349C469.752 586.817 483.847 565.242 496.846 552.2C507.534 541.477 518.089 535.126 529.894 528.023C530.798 527.479 531.709 526.931 532.628 526.376C534.369 525.325 536.996 528.553 535.6 530.032C524.026 542.29 508.42 560.021 499.318 575.347C492.494 586.839 484.515 605.08 482.497 609.767C490.969 613.613 500.352 614.886 509.205 613.39C557.145 605.295 564.891 575.527 572.766 545.263C577.709 526.268 582.702 507.078 597.716 492.928Z" fill="white"/>
<path d="M661.851 616.181C650.657 616.181 640.99 613.855 632.849 609.203C624.757 604.503 618.531 597.864 614.17 589.287C609.809 580.662 607.628 570.511 607.628 558.833C607.628 547.348 609.809 537.27 614.17 528.596C618.579 519.874 624.733 513.09 632.631 508.244C640.53 503.35 649.809 500.903 660.47 500.903C667.35 500.903 673.843 502.018 679.949 504.247C686.103 506.427 691.53 509.819 696.23 514.422C700.979 519.026 704.71 524.889 707.424 532.012C710.137 539.087 711.494 547.518 711.494 557.306V565.374H619.984V547.639H686.273C686.224 542.6 685.134 538.117 683.002 534.193C680.87 530.219 677.89 527.094 674.062 524.816C670.282 522.539 665.872 521.4 660.833 521.4C655.454 521.4 650.73 522.708 646.66 525.325C642.589 527.893 639.415 531.285 637.138 535.501C634.909 539.668 633.77 544.247 633.722 549.238V564.72C633.722 571.213 634.909 576.786 637.283 581.437C639.658 586.041 642.977 589.578 647.241 592.049C651.505 594.472 656.496 595.684 662.214 595.684C666.042 595.684 669.507 595.151 672.608 594.084C675.709 592.97 678.398 591.347 680.676 589.215C682.953 587.083 684.673 584.442 685.836 581.292L710.404 584.054C708.853 590.547 705.897 596.217 701.536 601.062C697.224 605.859 691.7 609.59 684.964 612.256C678.229 614.872 670.524 616.181 661.851 616.181ZM782.452 616.181C771.307 616.181 761.737 613.733 753.742 608.839C745.795 603.945 739.665 597.186 735.353 588.56C731.088 579.887 728.956 569.905 728.956 558.614C728.956 547.276 731.137 537.27 735.498 528.596C739.859 519.874 746.013 513.09 753.96 508.244C761.955 503.35 771.404 500.903 782.307 500.903C791.368 500.903 799.388 502.575 806.365 505.918C813.391 509.213 818.988 513.889 823.155 519.946C827.323 525.955 829.697 532.981 830.278 541.025H805.13C804.112 535.646 801.689 531.164 797.861 527.578C794.082 523.944 789.018 522.127 782.67 522.127C777.292 522.127 772.567 523.581 768.497 526.488C764.426 529.347 761.253 533.466 758.975 538.844C756.746 544.223 755.632 550.668 755.632 558.178C755.632 565.786 756.746 572.328 758.975 577.803C761.204 583.23 764.329 587.422 768.351 590.378C772.422 593.285 777.195 594.739 782.67 594.739C786.547 594.739 790.011 594.012 793.064 592.558C796.165 591.056 798.758 588.9 800.841 586.089C802.925 583.279 804.354 579.863 805.13 575.841H830.278C829.649 583.739 827.323 590.741 823.301 596.846C819.279 602.904 813.803 607.652 806.874 611.093C799.945 614.485 791.804 616.181 782.452 616.181ZM900.582 616.181C889.68 616.181 880.231 613.782 872.236 608.985C864.24 604.188 858.038 597.476 853.628 588.851C849.267 580.226 847.087 570.147 847.087 558.614C847.087 547.082 849.267 536.979 853.628 528.305C858.038 519.631 864.24 512.896 872.236 508.099C880.231 503.302 889.68 500.903 900.582 500.903C911.485 500.903 920.934 503.302 928.929 508.099C936.925 512.896 943.103 519.631 947.464 528.305C951.873 536.979 954.078 547.082 954.078 558.614C954.078 570.147 951.873 580.226 947.464 588.851C943.103 597.476 936.925 604.188 928.929 608.985C920.934 613.782 911.485 616.181 900.582 616.181ZM900.728 595.102C906.639 595.102 911.582 593.479 915.555 590.232C919.529 586.937 922.485 582.528 924.423 577.004C926.41 571.48 927.403 565.326 927.403 558.542C927.403 551.709 926.41 545.531 924.423 540.007C922.485 534.435 919.529 530.001 915.555 526.706C911.582 523.411 906.639 521.764 900.728 521.764C894.671 521.764 889.631 523.411 885.609 526.706C881.636 530.001 878.656 534.435 876.669 540.007C874.731 545.531 873.762 551.709 873.762 558.542C873.762 565.326 874.731 571.48 876.669 577.004C878.656 582.528 881.636 586.937 885.609 590.232C889.631 593.479 894.671 595.102 900.728 595.102Z" fill="white"/>
<path d="M1021.79 614C1009.23 614 1000.06 611.1 994.258 605.301C988.459 599.502 985.559 590.36 985.559 577.874V528.035H973.381C969.765 528.035 967.957 526.227 967.957 522.611C967.957 519.063 969.765 517.289 973.381 517.289H985.559V495.286C985.559 491.67 987.333 489.862 990.881 489.862C994.497 489.862 996.305 491.67 996.305 495.286V517.289H1021.99C1025.54 517.289 1027.31 519.063 1027.31 522.611C1027.31 526.227 1025.54 528.035 1021.99 528.035H996.305V577.874C996.305 587.426 998.147 594.044 1001.83 597.728C1005.58 601.412 1012.24 603.254 1021.79 603.254C1023.77 603.254 1025.16 603.698 1025.98 604.585C1026.87 605.472 1027.31 606.802 1027.31 608.576C1027.31 612.192 1025.47 614 1021.79 614ZM1061.07 614C1057.45 614 1055.64 612.192 1055.64 608.576V522.611C1055.64 519.063 1057.45 517.289 1061.07 517.289C1064.61 517.289 1066.39 519.063 1066.39 522.611V538.371C1069.93 531.548 1075.05 526.329 1081.74 522.713C1088.49 519.097 1096.47 517.289 1105.69 517.289C1109.3 517.289 1111.11 519.063 1111.11 522.611C1111.11 526.227 1109.3 528.035 1105.69 528.035C1093.54 528.035 1084.13 530.798 1077.44 536.324C1070.75 541.782 1067.07 549.594 1066.39 559.76V608.576C1066.39 612.192 1064.61 614 1061.07 614ZM1135.87 498.663C1131.16 498.663 1128.8 496.241 1128.8 491.397V486.792C1128.8 482.084 1131.16 479.73 1135.87 479.73H1140.47C1145.04 479.73 1147.33 482.084 1147.33 486.792V491.397C1147.33 496.241 1145.04 498.663 1140.47 498.663H1135.87ZM1138.22 614C1134.6 614 1132.8 612.192 1132.8 608.576V522.611C1132.8 519.063 1134.6 517.289 1138.22 517.289C1141.77 517.289 1143.54 519.063 1143.54 522.611V608.576C1143.54 612.192 1141.77 614 1138.22 614ZM1209.91 614C1200.22 614 1193.09 611.749 1188.52 607.246C1184.02 602.743 1181.77 595.681 1181.77 586.061V477.377C1181.77 473.829 1183.57 472.055 1187.19 472.055C1190.74 472.055 1192.51 473.829 1192.51 477.377V586.061C1192.51 592.679 1193.74 597.216 1196.2 599.672C1198.65 602.06 1203.19 603.254 1209.81 603.254C1213.49 603.254 1215.33 605.028 1215.33 608.576C1215.4 612.192 1213.59 614 1209.91 614ZM1246.76 614C1243.14 614 1241.33 612.192 1241.33 608.576V477.377C1241.33 473.829 1243.14 472.055 1246.76 472.055C1250.3 472.055 1252.08 473.829 1252.08 477.377V532.435C1258.56 522.338 1270.29 517.289 1287.28 517.289H1293.01C1305.77 517.289 1315.08 520.257 1320.95 526.193C1326.89 532.06 1329.86 541.373 1329.86 554.131V608.576C1329.86 612.192 1328.08 614 1324.53 614C1320.92 614 1319.11 612.192 1319.11 608.576V554.131C1319.11 544.375 1317.17 537.586 1313.28 533.766C1309.46 529.945 1302.7 528.035 1293.01 528.035H1287.28C1276.71 528.035 1268.38 529.706 1262.31 533.049C1256.24 536.392 1252.83 541.612 1252.08 548.707V608.576C1252.08 612.192 1250.3 614 1246.76 614ZM1391.02 614C1380.37 614 1372.56 611.544 1367.58 606.632C1362.67 601.651 1360.21 593.839 1360.21 583.196C1360.21 572.552 1362.7 564.741 1367.68 559.76C1372.66 554.779 1380.44 552.289 1391.02 552.289H1437.58C1437.45 543.283 1435.4 537.006 1431.44 533.459C1427.55 529.843 1420.9 528.035 1411.49 528.035H1399.61C1390.95 528.035 1384.6 528.956 1380.58 530.798C1376.55 532.64 1374.06 535.778 1373.11 540.213C1372.63 541.919 1371.98 543.181 1371.16 544C1370.41 544.75 1369.19 545.125 1367.48 545.125C1365.71 545.125 1364.31 544.648 1363.28 543.693C1362.33 542.669 1361.99 541.305 1362.26 539.599C1363.15 531.821 1366.66 526.158 1372.8 522.611C1379.01 519.063 1387.95 517.289 1399.61 517.289H1411.49C1424.24 517.289 1433.56 520.257 1439.42 526.193C1445.36 532.06 1448.33 541.373 1448.33 554.131V608.576C1448.33 612.192 1446.55 614 1443.01 614C1439.39 614 1437.58 612.192 1437.58 608.576V598.444C1431.03 608.815 1419.33 614 1402.48 614H1391.02ZM1391.02 603.254H1402.48C1409.1 603.254 1414.9 602.538 1419.88 601.105C1424.93 599.604 1428.99 597.216 1432.06 593.941C1435.13 590.667 1436.97 586.3 1437.58 580.842V563.035H1391.02C1383.44 563.035 1378.19 564.502 1375.26 567.435C1372.39 570.301 1370.96 575.554 1370.96 583.196C1370.96 590.769 1372.39 596.022 1375.26 598.956C1378.19 601.822 1383.44 603.254 1391.02 603.254Z" fill="white"/>
</svg>
