<svg width="1087" height="630" viewBox="0 0 1087 630" fill="none" xmlns="http://www.w3.org/2000/svg">
<rect width="1087" height="630" fill="#D84040"/>
<path d="M323.475 297.19C330.707 297.19 336.57 291.327 336.57 284.095C336.57 276.863 330.707 271 323.475 271C316.243 271 310.38 276.863 310.38 284.095C310.38 291.327 316.243 297.19 323.475 297.19Z" stroke="white" stroke-width="7.41224" stroke-linecap="round" stroke-linejoin="round"/>
<path d="M271.095 327.745C278.327 327.745 284.19 321.882 284.19 314.65C284.19 307.418 278.327 301.555 271.095 301.555C263.863 301.555 258 307.418 258 314.65C258 321.882 263.863 327.745 271.095 327.745Z" stroke="white" stroke-width="7.41224" stroke-linecap="round" stroke-linejoin="round"/>
<path d="M323.475 358.3C330.707 358.3 336.57 352.437 336.57 345.205C336.57 337.973 330.707 332.11 323.475 332.11C316.243 332.11 310.38 337.973 310.38 345.205C310.38 352.437 316.243 358.3 323.475 358.3Z" stroke="white" stroke-width="7.41224" stroke-linecap="round" stroke-linejoin="round"/>
<path d="M282.4 321.241L312.213 338.614" stroke="white" stroke-width="7.41224" stroke-linecap="round" stroke-linejoin="round"/>
<path d="M312.17 290.686L282.4 308.059" stroke="white" stroke-width="7.41224" stroke-linecap="round" stroke-linejoin="round"/>
<path d="M373.145 282.602L393.733 332.792L414.701 282.602H422.101V347.118H415.934V317.517L416.598 291.521L396.579 339.528H390.412L370.773 291.331L371.437 317.517V347.118H365.27V282.602H373.145ZM474.483 344.367C471.889 345.695 469.169 346.644 466.323 347.213C463.54 347.782 461.01 348.067 458.733 348.067C452.281 348.067 447.474 346.201 444.312 342.469C441.212 338.738 439.663 333.519 439.663 326.815V321.122C439.663 314.734 441.244 309.61 444.407 305.752C447.569 301.894 452.123 299.965 458.069 299.965C462.749 299.965 466.671 301.356 469.834 304.139C473.059 306.922 474.672 311.128 474.672 316.758C474.672 319.351 474.293 322.324 473.534 325.676H445.45V326.815C445.45 332.001 446.494 335.986 448.581 338.769C450.669 341.489 454.052 342.849 458.733 342.849C460.631 342.849 462.813 342.596 465.28 342.09C467.81 341.584 470.245 340.793 472.585 339.718L474.483 344.367ZM458.069 305.183C453.831 305.183 450.669 306.574 448.581 309.357C446.494 312.077 445.45 315.841 445.45 320.648H468.695C468.822 319.825 468.916 319.066 468.98 318.371C469.043 317.612 469.075 316.916 469.075 316.283C469.075 312.362 467.968 309.547 465.754 307.839C463.603 306.068 461.042 305.183 458.069 305.183ZM521.272 344.367C518.679 345.695 515.959 346.644 513.113 347.213C510.33 347.782 507.8 348.067 505.523 348.067C499.071 348.067 494.264 346.201 491.102 342.469C488.002 338.738 486.453 333.519 486.453 326.815V321.122C486.453 314.734 488.034 309.61 491.196 305.752C494.359 301.894 498.913 299.965 504.859 299.965C509.539 299.965 513.461 301.356 516.623 304.139C519.849 306.922 521.462 311.128 521.462 316.758C521.462 319.351 521.083 322.324 520.324 325.676H492.24V326.815C492.24 332.001 493.284 335.986 495.371 338.769C497.458 341.489 500.842 342.849 505.523 342.849C507.42 342.849 509.603 342.596 512.069 342.09C514.599 341.584 517.035 340.793 519.375 339.718L521.272 344.367ZM504.859 305.183C500.621 305.183 497.458 306.574 495.371 309.357C493.284 312.077 492.24 315.841 492.24 320.648H515.485C515.611 319.825 515.706 319.066 515.769 318.371C515.833 317.612 515.864 316.916 515.864 316.283C515.864 312.362 514.757 309.547 512.544 307.839C510.393 306.068 507.831 305.183 504.859 305.183ZM559.239 345.316C555.76 347.15 552.249 348.067 548.707 348.067C545.545 348.067 543.078 347.435 541.307 346.17C539.536 344.841 538.302 343.102 537.607 340.951C536.911 338.801 536.563 336.524 536.563 334.12V305.942H528.119V300.913H536.563V287.441H542.256V300.913H557.91V305.942H542.256V333.646C542.256 337.188 542.793 339.655 543.869 341.046C545.007 342.375 546.841 343.039 549.371 343.039C551.775 343.039 554.4 342.28 557.246 340.762L559.239 345.316Z" fill="white"/>
<path d="M595.239 337.536C602.576 337.536 606.245 334.816 606.245 329.376C606.245 327.163 605.676 325.423 604.537 324.158C603.462 322.893 601.438 321.786 598.465 320.838L590.685 318.276C581.387 315.24 576.738 309.136 576.738 299.965C576.738 294.652 578.383 290.287 581.672 286.872C585.024 283.393 590.242 281.653 597.326 281.653C600.299 281.653 603.24 282.001 606.15 282.697C609.059 283.33 612.159 284.373 615.448 285.828L611.937 295.6C608.901 294.399 606.308 293.545 604.157 293.039C602.07 292.469 599.92 292.185 597.706 292.185C594.796 292.185 592.488 292.722 590.78 293.798C589.135 294.81 588.313 296.676 588.313 299.395C588.313 301.419 588.882 303.096 590.021 304.424C591.223 305.689 593.183 306.764 595.903 307.65L603.683 310.211C608.364 311.793 611.874 314.101 614.214 317.137C616.618 320.11 617.82 324.063 617.82 328.997C617.82 334.69 616.017 339.307 612.412 342.849C608.806 346.328 603.145 348.067 595.429 348.067C592.393 348.067 589.23 347.719 585.941 347.023C582.715 346.264 579.173 344.999 575.315 343.228L578.825 333.456C582.367 334.974 585.372 336.049 587.839 336.682C590.369 337.251 592.836 337.536 595.239 337.536ZM630.303 347.118V282.602H651.556C658.324 282.602 663.384 284.31 666.736 287.726C670.152 291.141 671.859 295.695 671.859 301.388V306.416C671.859 312.109 670.152 316.695 666.736 320.173C663.384 323.589 658.324 325.297 651.556 325.297H641.689V347.118H630.303ZM651.556 293.513H641.689V314.386H651.556C654.339 314.386 656.458 313.69 657.913 312.299C659.431 310.907 660.19 308.946 660.19 306.416V301.388C660.19 298.921 659.431 296.992 657.913 295.6C656.458 294.209 654.339 293.513 651.556 293.513ZM714.867 347.118L710.882 334.5H688.776L684.791 347.118H673.5L695.037 282.602H705.094L726.726 347.118H714.867ZM694.943 314.765L692.001 324.063H707.561L704.62 314.765L699.876 298.447L694.943 314.765ZM744.379 321.597C744.379 326.214 745.391 330.009 747.415 332.982C749.439 335.891 752.759 337.346 757.377 337.346C759.274 337.346 761.235 337.093 763.259 336.587C765.346 336.081 767.908 335.227 770.944 334.025L774.454 343.893C771.039 345.411 767.876 346.486 764.967 347.118C762.12 347.751 759.369 348.067 756.712 348.067C751.399 348.067 746.94 346.929 743.335 344.652C739.793 342.375 737.136 339.244 735.365 335.259C733.594 331.274 732.709 326.72 732.709 321.597V308.029C732.709 302.906 733.594 298.352 735.365 294.367C737.136 290.382 739.793 287.283 743.335 285.069C746.94 282.792 751.399 281.653 756.712 281.653C759.306 281.653 761.994 281.97 764.777 282.602C767.56 283.171 770.596 284.184 773.885 285.638L770.375 295.695C767.465 294.493 765.03 293.64 763.069 293.134C761.108 292.628 759.211 292.375 757.377 292.375C752.759 292.375 749.439 293.829 747.415 296.739C745.391 299.648 744.379 303.412 744.379 308.029V321.597ZM823.712 336.208V347.118H786.331V282.602H822.764V293.513H797.716V308.978H819.917V319.889H797.716V336.208H823.712Z" fill="white"/>
</svg>
