<svg width="1087" height="630" viewBox="0 0 1087 630" fill="none" xmlns="http://www.w3.org/2000/svg">
<rect width="1087" height="630" fill="#F9A620"/>
<path d="M391.756 303.389C391.516 300.963 390.483 299.079 388.659 297.736C386.835 296.393 384.36 295.722 381.233 295.722C379.108 295.722 377.314 296.022 375.851 296.624C374.388 297.205 373.265 298.017 372.483 299.059C371.722 300.102 371.341 301.284 371.341 302.607C371.301 303.71 371.531 304.672 372.032 305.494C372.554 306.315 373.265 307.027 374.167 307.628C375.069 308.21 376.111 308.721 377.294 309.162C378.477 309.583 379.739 309.943 381.082 310.244L386.615 311.567C389.301 312.168 391.766 312.97 394.011 313.972C396.256 314.975 398.201 316.207 399.844 317.671C401.488 319.134 402.761 320.858 403.663 322.842C404.585 324.827 405.056 327.102 405.076 329.667C405.056 333.436 404.094 336.703 402.189 339.469C400.305 342.215 397.579 344.35 394.011 345.873C390.463 347.377 386.184 348.128 381.173 348.128C376.202 348.128 371.872 347.367 368.184 345.843C364.516 344.32 361.649 342.065 359.585 339.078C357.54 336.072 356.468 332.353 356.367 327.923H368.966C369.106 329.988 369.697 331.712 370.739 333.095C371.802 334.458 373.215 335.49 374.979 336.192C376.763 336.873 378.777 337.214 381.022 337.214C383.227 337.214 385.142 336.893 386.765 336.252C388.409 335.611 389.682 334.719 390.584 333.576C391.486 332.433 391.937 331.121 391.937 329.637C391.937 328.254 391.526 327.092 390.704 326.149C389.902 325.207 388.719 324.406 387.156 323.744C385.613 323.083 383.718 322.481 381.473 321.94L374.768 320.256C369.577 318.994 365.478 317.019 362.471 314.333C359.464 311.647 357.971 308.029 357.991 303.479C357.971 299.751 358.963 296.494 360.968 293.707C362.992 290.921 365.768 288.746 369.296 287.183C372.824 285.619 376.833 284.838 381.323 284.838C385.893 284.838 389.882 285.619 393.29 287.183C396.717 288.746 399.383 290.921 401.287 293.707C403.192 296.494 404.174 299.721 404.234 303.389H391.756ZM411.488 296.413V285.679H462.06V296.413H443.208V347.256H430.34V296.413H411.488Z" fill="white"/>
<path d="M631.896 347.256V285.679H656.19C660.84 285.679 664.809 286.511 668.096 288.175C671.404 289.819 673.919 292.154 675.643 295.181C677.387 298.187 678.259 301.725 678.259 305.794C678.259 309.883 677.377 313.401 675.613 316.348C673.849 319.274 671.294 321.519 667.946 323.083C664.619 324.646 660.59 325.428 655.859 325.428H639.593V314.965H653.754C656.24 314.965 658.305 314.624 659.948 313.942C661.592 313.261 662.815 312.239 663.616 310.876C664.438 309.512 664.849 307.819 664.849 305.794C664.849 303.75 664.438 302.026 663.616 300.623C662.815 299.22 661.582 298.157 659.918 297.436C658.275 296.694 656.2 296.323 653.694 296.323H644.915V347.256H631.896ZM665.15 319.234L680.454 347.256H666.082L651.109 319.234H665.15ZM687.459 347.256V285.679H728.952V296.413H700.478V311.086H726.817V321.82H700.478V336.523H729.072V347.256H687.459Z" fill="white"/>
<path d="M530.218 332.336L524.157 339.18C519.472 343.864 513.504 347.054 507.006 348.347C500.509 349.639 493.774 348.976 487.654 346.441C481.533 343.906 476.302 339.612 472.622 334.104C468.941 328.596 466.977 322.12 466.977 315.495C466.977 308.87 468.941 302.395 472.622 296.886C476.302 291.378 481.533 287.085 487.654 284.55C493.774 282.015 500.509 281.351 507.006 282.644C513.504 283.936 519.472 287.126 524.157 291.811L566.108 339.18C570.792 343.864 576.76 347.054 583.258 348.347C589.755 349.639 596.49 348.976 602.61 346.441C608.731 343.906 613.962 339.612 617.643 334.104C621.323 328.596 623.288 322.12 623.288 315.495C623.288 308.87 621.323 302.395 617.643 296.886C613.962 291.378 608.731 287.085 602.61 284.55C596.49 282.015 589.755 281.351 583.258 282.644C576.76 283.936 570.792 287.126 566.108 291.811L560.046 298.655" stroke="white" stroke-width="11.1651" stroke-linecap="round" stroke-linejoin="round"/>
</svg>
