<svg width="195" height="24" viewBox="0 0 195 24" fill="none" xmlns="http://www.w3.org/2000/svg">
<path d="M13.4493 24L11.0538 9.86622H10.9169L8.45289 24H3.66178L0.342222 0.0444434H4.928L5.88622 7.09422L6.60489 15.0338H6.776L8.04222 7.12844L9.10311 0.0444434H12.9702L13.9969 7.12844L15.2973 15.0338H15.4684L16.1529 7.09422L17.1111 0.0444434H21.6969L18.3773 24H13.4493ZM24.0088 24V0.0444434H36.2945V4.15111H28.6972V9.86622H35.4732V13.836H28.6972V20.0302H36.4314V24H24.0088ZM39.4235 24V0.0444434H49.1768C50.2947 0.45511 51.2872 1.17378 52.1541 2.20044C53.0211 3.22711 53.4546 4.47052 53.4546 5.93067C53.4546 8.50874 52.6104 10.3111 50.9221 11.3378V11.4747C53.0211 12.6382 54.0706 14.4634 54.0706 16.9502C54.0706 19.8021 52.6218 22.152 49.7244 24H39.4235ZM44.0777 9.93467H47.4657C48.4695 9.31867 48.9715 8.38326 48.9715 7.12844C48.9715 5.87363 48.5038 4.88118 47.5684 4.15111H44.0777V9.93467ZM44.0777 20.0302H47.6026C48.0132 19.7336 48.3783 19.2659 48.6977 18.6271C49.0399 17.9883 49.211 17.3495 49.211 16.7107C49.211 16.0719 49.0741 15.4901 48.8004 14.9653C48.5266 14.4406 48.1844 14.0527 47.7737 13.8018H44.0777V20.0302ZM61.5644 20.0302H64.6444C65.2833 19.2317 65.7852 18.0681 66.1502 16.5396C66.5381 15.011 66.732 13.4938 66.732 11.988C66.732 8.40607 66.059 5.79378 64.7129 4.15111H61.5644V20.0302ZM56.9102 24V0.0444434H66.8347C70.0744 2.91911 71.6942 6.82044 71.6942 11.7484C71.6942 16.6536 70.177 20.7375 67.1427 24H56.9102ZM74.6978 24V0.0444434H86.9835V4.15111H79.3862V9.86622H86.1622V13.836H79.3862V20.0302H87.1204V24H74.6978ZM104.794 0.0444434L99.9342 24H93.5005L88.6409 0.0444434H93.5689L95.4511 11.1324L96.6147 18.3191H96.82L97.9836 11.1324L99.8658 0.0444434H104.794Z" fill="#598392"/>
<path d="M115.357 13.0489H115.22H115.357L117.17 5.55422L118.642 0.0444434H122.92L124.46 24H119.977L119.326 10.9271H119.155L116.691 20.5778H113.885L111.421 10.9271H111.25L110.6 24H106.117L107.657 0.0444434H111.934L113.406 5.55422L115.22 13.0489H115.357ZM137.757 24L137.039 20.2013H131.631L130.913 24H126.259L130.879 0.0444434H137.963L142.343 24H137.757ZM134.267 4.49333L132.932 12.4671L132.179 16.5396H136.457L135.67 12.4671L134.335 4.49333H134.267ZM146.473 4.15111H141.306V0.0444434H156.295V4.15111H151.127V24H146.473V4.15111ZM158.622 24V0.0444434H163.311V24H158.622ZM177.15 24L176.432 20.2013H171.024L170.306 24H165.652L170.272 0.0444434H177.356L181.736 24H177.15ZM173.66 4.49333L172.325 12.4671L171.572 16.5396H175.85L175.063 12.4671L173.728 4.49333H173.66ZM186.261 0.0444434H194.475V4.15111H187.904L187.801 4.35644L193.277 14.3493C194.395 16.357 194.954 17.8856 194.954 18.9351C194.954 21.2394 194.19 22.9277 192.661 24H183.592V20.0302H190.676L190.779 19.8249L184.619 8.77111C183.729 7.17407 183.284 5.87363 183.284 4.86978C183.284 2.49704 184.276 0.888592 186.261 0.0444434Z" fill="#FB8500"/>
</svg>
